<svg xmlns="http://www.w3.org/2000/svg" viewBox="0 0 900 700" role="img" aria-labelledby="title desc">
  <title id="title">Escena abstracta para sección sobre SADEY</title>
  <desc id="desc">Composición local inspirada en revisión de materiales, laboratorio y trabajo técnico.</desc>
  <defs>
    <linearGradient id="bg" x1="0%" y1="0%" x2="100%" y2="100%">
      <stop offset="0%" stop-color="#f3ede3" />
      <stop offset="100%" stop-color="#ddd7cd" />
    </linearGradient>
    <linearGradient id="navy" x1="0%" y1="0%" x2="100%" y2="100%">
      <stop offset="0%" stop-color="#10203e" />
      <stop offset="100%" stop-color="#1d3152" />
    </linearGradient>
    <linearGradient id="gold" x1="0%" y1="0%" x2="100%" y2="100%">
      <stop offset="0%" stop-color="#9b7336" />
      <stop offset="100%" stop-color="#d1ab67" />
    </linearGradient>
  </defs>
  <rect width="900" height="700" fill="url(#bg)" />
  <rect x="44" y="54" width="812" height="592" rx="24" fill="url(#navy)" />
  <rect x="90" y="110" width="306" height="436" rx="22" fill="#274162" />
  <path d="M130 512c32-82 82-152 150-188 38-20 80-28 116-24v246H130z" fill="#33507a" opacity=".9" />
  <circle cx="244" cy="232" r="62" fill="#1b304d" opacity=".8" />
  <rect x="456" y="118" width="246" height="198" rx="18" fill="url(#gold)" />
  <rect x="484" y="152" width="120" height="124" rx="12" fill="#f6f0e4" opacity=".3" />
  <rect x="456" y="350" width="298" height="170" rx="18" fill="#f5f0e6" />
  <rect x="486" y="380" width="238" height="18" rx="8" fill="#d9d0c0" />
  <rect x="486" y="418" width="210" height="18" rx="8" fill="#d9d0c0" />
  <rect x="486" y="456" width="170" height="18" rx="8" fill="#d9d0c0" />
  <rect x="472" y="550" width="222" height="46" rx="12" fill="#0f1d37" opacity=".92" />
</svg>
