<svg xmlns="http://www.w3.org/2000/svg" viewBox="0 0 1600 900" role="img" aria-labelledby="title desc">
  <title id="title">Escena industrial abstracta para hero</title>
  <desc id="desc">Composición local inspirada en laboratorio, control de calidad y materiales de construcción.</desc>
  <defs>
    <linearGradient id="bg" x1="0%" y1="0%" x2="100%" y2="100%">
      <stop offset="0%" stop-color="#091225" />
      <stop offset="45%" stop-color="#12233f" />
      <stop offset="100%" stop-color="#36455c" />
    </linearGradient>
    <linearGradient id="metal" x1="0%" y1="0%" x2="0%" y2="100%">
      <stop offset="0%" stop-color="#d7d9dc" />
      <stop offset="100%" stop-color="#838b96" />
    </linearGradient>
    <linearGradient id="gold" x1="0%" y1="0%" x2="100%" y2="100%">
      <stop offset="0%" stop-color="#8f6a31" />
      <stop offset="100%" stop-color="#d0aa66" />
    </linearGradient>
  </defs>
  <rect width="1600" height="900" fill="url(#bg)" />
  <rect x="1040" y="90" width="240" height="560" rx="24" fill="url(#metal)" opacity=".22" />
  <rect x="1300" y="120" width="170" height="520" rx="20" fill="#c9ccd2" opacity=".18" />
  <circle cx="930" cy="310" r="102" fill="#d8dbe0" opacity=".2" />
  <rect x="340" y="520" width="520" height="84" rx="12" fill="#243851" opacity=".64" />
  <path d="M0 720c178-124 420-204 734-224 262-18 544 14 866 150v254H0z" fill="#0a1428" opacity=".74" />
  <rect x="845" y="502" width="130" height="170" rx="18" fill="#aab2bc" opacity=".92" />
  <rect x="995" y="444" width="32" height="112" rx="12" fill="#e1e4e8" />
  <circle cx="1011" cy="430" r="42" fill="none" stroke="#d9dde3" stroke-width="14" opacity=".9" />
  <rect x="1110" y="430" width="188" height="212" rx="20" fill="#8a929d" opacity=".78" />
  <rect x="1132" y="452" width="144" height="168" rx="12" fill="#b1b8c1" opacity=".88" />
  <rect x="620" y="586" width="180" height="26" rx="8" fill="#172739" opacity=".72" />
  <rect x="520" y="604" width="110" height="62" rx="12" fill="url(#gold)" opacity=".94" />
  <rect x="185" y="662" width="250" height="32" rx="10" fill="#18273a" opacity=".44" />
  <g opacity=".24" stroke="#f6f0e4" stroke-width="2">
    <path d="M1160 160v320" />
    <path d="M1376 170v300" />
    <path d="M930 210v208" />
  </g>
</svg>
