<svg xmlns="http://www.w3.org/2000/svg" viewBox="0 0 64 64" role="img" aria-labelledby="title desc">
  <title id="title">SADEY</title>
  <desc id="desc">Isotipo temporal con las letras S y A</desc>
  <defs>
    <linearGradient id="gold" x1="0%" x2="100%">
      <stop offset="0%" stop-color="#c9a063" />
      <stop offset="100%" stop-color="#f2d2a0" />
    </linearGradient>
  </defs>
  <rect width="64" height="64" rx="16" fill="#10233f" />
  <path d="M20 43c3 3 7 5 12 5 8 0 14-4 18-12l-6-2c-2 5-5 8-11 8-3 0-6-1-8-3z" fill="url(#gold)" />
  <path d="M17 29c2-8 8-13 17-13 7 0 12 3 16 9l-6 3c-3-4-6-6-11-6-6 0-9 3-11 8z" fill="#ffffff" opacity=".9" />
</svg>
